<svg width="58" height="40" viewBox="0 0 58 40" fill="none" xmlns="http://www.w3.org/2000/svg">
<path d="M45 0C46.3749 0 47.5523 0.489909 48.5322 1.46973C49.5122 2.44973 50.0017 3.62667 50 5V10H5V35H50C50 36.375 49.5106 37.5522 48.5322 38.5322C47.5539 39.5122 46.3767 40.0017 45 40H5C3.625 40 2.44806 39.5106 1.46973 38.5322C0.491576 37.5539 0.00166651 36.3765 0 35V5C0 3.625 0.489727 2.44806 1.46973 1.46973C2.44973 0.491393 3.62667 0.00166667 5 0H45ZM23.75 22.5L13.75 32.5L10.25 29L16.6875 22.5L10.1875 16L13.75 12.5L23.75 22.5ZM40.417 27.333V32.083H40V32.5H25V27.5H27.75V27.333H40.417ZM57.0889 13.083L47.542 22.583L57.042 32.083H50.3281L42.5225 24.2773C41.6042 23.3748 41.6042 21.855 42.5225 20.9209L50.376 13.083H57.0889Z" fill="#5B86D7"/>
</svg>
